<svg width="266" height="114" viewBox="0 0 266 114" fill="none" xmlns="http://www.w3.org/2000/svg">
<path d="M29.7111 63.2107V54.4759H52.2729V75.1281C50.0804 77.2499 46.8977 79.1242 42.7248 80.7509C38.5755 82.354 34.3673 83.1556 30.1001 83.1556C24.6777 83.1556 19.9509 82.0239 15.9194 79.7607C11.888 77.4739 8.85856 74.2204 6.83107 70.0004C4.80357 65.7568 3.78982 61.1478 3.78982 56.1734C3.78982 50.7746 4.92145 45.9769 7.1847 41.7805C9.44795 37.5841 12.7603 34.366 17.1218 32.1263C20.4459 30.4053 24.5834 29.5448 29.5343 29.5448C35.9704 29.5448 40.992 30.9004 44.5991 33.6116C48.2297 36.2992 50.5637 40.0241 51.601 44.7864L41.2042 46.7314C40.4734 44.1852 39.0942 42.1813 37.0667 40.7196C35.0628 39.2343 32.552 38.4917 29.5343 38.4917C24.9607 38.4917 21.3182 39.9416 18.607 42.8414C15.9194 45.7412 14.5756 50.0437 14.5756 55.749C14.5756 61.9022 15.943 66.523 18.6778 69.6114C21.4125 72.6762 24.996 74.2087 29.4282 74.2087C31.6207 74.2087 33.8133 73.7843 36.0058 72.9356C38.2219 72.0633 40.1197 71.0142 41.6993 69.7882V63.2107H29.7111ZM184.085 82.2715H174.855V76.7548C173.322 78.9002 171.507 80.5033 169.409 81.5642C167.334 82.6015 165.236 83.1202 163.114 83.1202C158.8 83.1202 155.099 81.3874 152.01 77.9218C148.945 74.4326 147.413 69.5761 147.413 63.3521C147.413 56.9867 148.91 52.1537 151.904 48.8532C154.898 45.529 158.682 43.8669 163.256 43.8669C167.452 43.8669 171.083 45.6115 174.148 49.1007V30.4289H184.085V82.2715ZM157.562 62.6802C157.562 66.6881 158.116 69.5878 159.224 71.3796C160.827 73.9729 163.067 75.2695 165.943 75.2695C168.23 75.2695 170.175 74.303 171.778 72.3698C173.381 70.413 174.183 67.5014 174.183 63.635C174.183 59.3207 173.405 56.2205 171.849 54.3345C170.293 52.4249 168.301 51.47 165.873 51.47C163.515 51.47 161.535 52.4131 159.932 54.2991C158.352 56.1616 157.562 58.9553 157.562 62.6802ZM199.169 56.1734L190.152 54.5467C191.165 50.916 192.91 48.2284 195.385 46.4838C197.861 44.7392 201.539 43.8669 206.419 43.8669C210.851 43.8669 214.152 44.3974 216.32 45.4583C218.489 46.4956 220.01 47.8276 220.882 49.4543C221.778 51.0575 222.226 54.0162 222.226 58.3305L222.12 69.9297C222.12 73.2303 222.273 75.6703 222.58 77.2499C222.91 78.8059 223.511 80.4797 224.383 82.2715H214.552C214.293 81.6114 213.975 80.633 213.597 79.3363C213.432 78.7469 213.315 78.3579 213.244 78.1693C211.546 79.8196 209.731 81.0573 207.798 81.8825C205.865 82.7076 203.802 83.1202 201.609 83.1202C197.743 83.1202 194.69 82.0711 192.45 79.9729C190.234 77.8746 189.126 75.2224 189.126 72.0161C189.126 69.8943 189.633 68.0083 190.647 66.358C191.66 64.6841 193.075 63.4111 194.89 62.5388C196.729 61.6429 199.37 60.8649 202.812 60.2048C207.456 59.3325 210.674 58.5191 212.466 57.7647V56.7745C212.466 54.8649 211.994 53.5093 211.051 52.7078C210.108 51.8826 208.328 51.47 205.711 51.47C203.943 51.47 202.564 51.8237 201.574 52.5309C200.584 53.2146 199.782 54.4288 199.169 56.1734ZM212.466 64.2362C211.193 64.6606 209.177 65.1674 206.419 65.7568C203.66 66.3462 201.857 66.9238 201.008 67.4896C199.711 68.4091 199.063 69.5761 199.063 70.9906C199.063 72.3815 199.582 73.5839 200.619 74.5976C201.656 75.6114 202.977 76.1183 204.58 76.1183C206.372 76.1183 208.081 75.5289 209.708 74.3501C210.91 73.4542 211.7 72.358 212.077 71.0613C212.336 70.2126 212.466 68.5977 212.466 66.2165V64.2362ZM225.181 44.7157H235.755L244.737 71.3796L253.507 44.7157H263.798L250.537 80.857L248.167 87.3992C247.295 89.5917 246.458 91.2656 245.656 92.4208C244.878 93.576 243.971 94.5072 242.933 95.2145C241.92 95.9453 240.658 96.5111 239.15 96.9119C237.664 97.3127 235.979 97.5131 234.093 97.5131C232.183 97.5131 230.309 97.3127 228.47 96.9119L227.586 89.132C229.142 89.4384 230.545 89.5917 231.794 89.5917C234.104 89.5917 235.814 88.908 236.922 87.5406C238.03 86.1968 238.878 84.4758 239.468 82.3776L225.181 44.7157Z" fill="#5552DE"/>
<path d="M55.1186 62.6854L55.125 62.6825C55.454 69.9204 58.813 75.5501 63.7931 78.8201C68.8875 82.1652 75.6474 83.0211 82.5261 80.648C89.1953 78.3475 94.5961 72.9024 99.543 67.9149C99.6113 67.8461 99.6795 67.7773 99.7476 67.7087C99.7625 67.6936 99.7758 67.6806 99.7877 67.6694C99.796 67.6773 99.805 67.6862 99.8149 67.6962L100.026 67.4892L99.8149 67.6962C104.229 72.1895 107.992 75.8756 112.359 78.5504C129.781 89.2214 150.135 73.1135 143.046 53.6545C140.924 47.8313 136.773 43.9574 130.816 42.2017L130.719 42.5322L130.816 42.2017C123.749 40.1187 117.692 41.7599 112.554 44.7802C107.715 47.6256 103.673 51.7065 100.358 55.0543C100.164 55.25 99.973 55.4431 99.7842 55.6334C95.4097 51.1926 91.3028 47.0864 86.4558 44.3098L86.3039 44.575L86.4558 44.3098C71.644 35.8256 54.7444 46.684 55.1065 62.1674L55.1186 62.6854ZM64.2897 61.8538C64.2661 53.4997 72.6876 47.24 81.6683 51.5196C84.0024 52.6319 86.1061 54.2741 88.1171 56.1002C89.1222 57.0127 90.1005 57.9679 91.0721 58.9233C91.1795 59.0289 91.2867 59.1345 91.3939 59.24C92.2297 60.0625 93.0622 60.8818 93.8988 61.665C93.8449 61.7204 93.7909 61.7759 93.7367 61.8316C91.583 64.0457 89.267 66.4265 86.7502 68.4362C84.13 70.5283 81.3156 72.1984 78.2748 72.8558C74.7537 73.6171 71.3648 72.9925 68.8093 71.1301C66.2597 69.272 64.5031 66.1549 64.2897 61.8538ZM105.67 61.6392C105.737 61.5697 105.805 61.5 105.873 61.4301C107.956 59.2903 110.222 56.9616 112.685 54.9753C115.263 52.8965 118.034 51.2129 121.002 50.5171C124.778 49.6316 128.279 50.3249 130.863 52.2492C133.444 54.171 135.146 57.3464 135.281 61.4979C135.292 67.2429 131.233 72.0829 125.673 73.0189C121.502 73.7213 117.853 72.1528 114.549 69.7451C112.195 68.0294 110.051 65.9176 108.03 63.9267C107.226 63.1342 106.441 62.3608 105.67 61.6392Z" fill="#5552DE" stroke="#5552DE" stroke-width="0.689024"/>
</svg>
